<svg width="183" height="181" viewBox="0 0 183 181" fill="none" xmlns="http://www.w3.org/2000/svg">
<path d="M39.1195 49.9295C39.552 52.1545 39.1406 54.2311 37.8855 56.1594C36.6253 58.0615 34.5587 59.6585 31.6858 60.9504C33.3952 61.0799 34.768 61.5737 35.8041 62.4318C36.8351 63.2637 37.4778 64.334 37.7322 65.6429C38.1342 67.7108 37.8283 69.6311 36.8146 71.4038C35.8271 73.1714 34.1713 74.7157 31.8473 76.0367C29.5183 77.3316 26.5999 78.3199 23.0922 79.0017C21.7834 79.2562 20.7287 79.4204 19.9281 79.4945C20.0444 80.2326 19.8372 80.8433 19.3063 81.3269C18.7755 81.8104 18.0389 82.1437 17.0965 82.3269C16.1542 82.51 15.4591 82.4278 15.0112 82.0802C14.5895 81.7276 14.3259 81.1404 14.2205 80.3187C13.7438 76.6082 13.4564 72.6843 13.3585 68.5469C13.2555 64.3834 13.3638 60.3283 13.6832 56.3815C13.7392 55.6914 14.0167 55.1621 14.5155 54.7935C15.0143 54.4249 15.7088 54.1541 16.5988 53.9811C18.1955 53.6707 19.0804 53.9605 19.2534 54.8505C19.3247 55.217 19.3276 55.6511 19.2621 56.1528C18.9784 58.3269 18.8371 61.2339 18.8384 64.8739C18.8345 68.4877 18.9964 71.9062 19.3242 75.1296C20.601 74.9901 21.6321 74.844 22.4174 74.6913C26.0821 73.979 28.6635 72.9339 30.1614 71.5561C31.6805 70.147 32.2797 68.6179 31.9592 66.9688C31.7353 65.817 31.0496 64.9451 29.9023 64.3532C28.7811 63.7562 27.0611 63.6423 24.7423 64.0115C24.2137 64.0871 23.8217 64.0274 23.5665 63.8325C23.3113 63.6377 23.1328 63.2785 23.0311 62.7549C22.8835 61.9958 22.921 61.3501 23.1435 60.8179C23.3661 60.2856 23.8936 59.925 24.7262 59.736C26.5746 59.3224 28.1964 58.7219 29.5918 57.9345C31.0134 57.142 32.0696 56.2168 32.7604 55.1589C33.4462 54.0748 33.672 52.9307 33.438 51.7266C33.1429 50.2083 32.1653 49.1623 30.5053 48.5885C28.8402 47.9885 26.4633 47.9887 23.3744 48.5891C20.5735 49.1336 17.9355 50.0267 15.4603 51.2685C12.98 52.4841 10.9305 53.8197 9.31183 55.2753C8.57085 55.9354 7.91241 56.3215 7.33653 56.4334C6.86535 56.525 6.46834 56.4392 6.14552 56.176C5.84378 55.8815 5.64457 55.4855 5.54789 54.9882C5.42069 54.3338 5.44217 53.7455 5.61235 53.2234C5.80871 52.6963 6.37191 52.0299 7.30195 51.2243C9.25656 49.5404 11.6442 48.0576 14.4647 46.7759C17.2853 45.4941 20.24 44.5531 23.3289 43.9526C28.0669 43.0317 31.7559 43.1431 34.3961 44.2871C37.0362 45.431 38.6106 47.3118 39.1195 49.9295ZM44.6013 53.2648C43.5018 53.4785 42.6289 53.3901 41.9825 52.9996C41.3311 52.5829 40.9163 51.9165 40.7382 51.0003C40.5601 50.0841 40.7659 49.2563 41.3557 48.5168C41.9665 47.7461 42.8085 47.2564 43.8818 47.0478C44.8503 46.8596 45.6814 46.9425 46.3751 47.2967C47.0687 47.6508 47.4995 48.2598 47.6674 49.1236C47.871 50.1707 47.6935 51.0745 47.135 51.835C46.5714 52.5694 45.7269 53.046 44.6013 53.2648ZM48.3857 74.4112C46.6842 74.7419 45.3238 74.3815 44.3044 73.3301C43.3113 72.2735 42.6213 70.7505 42.2346 68.7611C42.0056 67.5831 41.857 66.05 41.7888 64.1616C41.7417 62.242 41.7985 60.438 41.9593 58.7497C42.0321 57.8662 42.2342 57.2293 42.5658 56.8388C42.8974 56.4484 43.4951 56.1692 44.359 56.0013C45.694 55.7418 46.448 56.057 46.621 56.947C46.7482 57.6015 46.7946 59.1681 46.7603 61.6468C46.6918 64.6484 46.7567 66.6596 46.9552 67.6805C47.1078 68.4658 47.3295 69.0475 47.6204 69.4256C47.9112 69.8037 48.3053 69.9445 48.8026 69.8478C49.2738 69.7562 49.7992 69.3145 50.3788 68.5227C50.9583 67.7309 51.6997 66.5137 52.6029 64.8712C52.8458 64.4437 53.1635 64.1918 53.5562 64.1154C53.8965 64.0493 54.1888 64.1555 54.4331 64.434C54.7036 64.7074 54.8922 65.119 54.9991 65.6687C55.2026 66.7157 55.1117 67.5756 54.7262 68.2481C52.7504 71.9192 50.6369 73.9736 48.3857 74.4112ZM57.7345 72.594C56.2424 72.884 54.9107 72.5316 53.7394 71.5368C52.5942 70.537 51.8359 69.0816 51.4645 67.1707C51.0574 65.0766 51.1575 63.0061 51.7648 60.9593C52.367 58.8863 53.3571 57.1318 54.7351 55.6958C56.1341 54.2286 57.7368 53.3194 59.543 52.9683C60.1189 52.8564 60.5213 52.9004 60.7503 53.1004C61.0005 53.2691 61.2469 53.6286 61.4898 54.1791C61.9668 53.9777 62.5063 53.8185 63.1084 53.7015C63.7366 53.5794 64.2514 53.6423 64.6528 53.8903C65.0541 54.1382 65.3108 54.5502 65.4227 55.126C65.5397 55.7281 65.6124 56.8006 65.6406 58.3436C65.6631 59.9963 65.7382 61.5709 65.8661 63.0673C65.9889 64.5376 66.2259 66.1758 66.5769 67.982C66.7703 68.9767 66.7008 69.7373 66.3685 70.2637C66.0572 70.7589 65.4435 71.0955 64.5274 71.2736C63.6373 71.4466 62.9291 71.3669 62.4027 71.0346C61.8974 70.671 61.5506 70.0049 61.3623 69.0364L61.2795 68.4005C60.9056 70.8094 59.7239 72.2073 57.7345 72.594ZM58.495 68.3305C59.2279 68.1881 59.7962 67.5479 60.1998 66.4099C60.6034 65.272 60.7864 63.3484 60.7488 60.6392L60.724 56.5284C59.6558 56.7632 58.7425 57.3754 57.984 58.3649C57.2205 59.3283 56.6911 60.5179 56.3958 61.9335C56.1005 63.3492 56.0953 64.79 56.3803 66.2559C56.5329 67.0412 56.7939 67.6153 57.1633 67.9782C57.5537 68.3097 57.9976 68.4272 58.495 68.3305Z" fill="white"/>
<path d="M117.025 93.8784L117.557 94.7249L117.557 94.7249L117.025 93.8784ZM143.239 142.265L154.786 142.228L148.981 132.247L143.239 142.265ZM63.6745 73.4484C63.3676 80.327 62.6309 87.6225 62.6708 93.8902C62.7104 100.132 63.5034 105.783 66.5368 109.31C69.6812 112.966 74.9123 114.033 82.9514 111.913C90.9937 109.791 102.144 104.417 117.557 94.7249L116.493 93.0318C101.122 102.696 90.1812 107.937 82.4413 109.979C74.6981 112.021 70.4561 110.8 68.0532 108.006C65.5391 105.082 64.7104 100.121 64.6707 93.8775C64.6312 87.6603 65.3575 80.5986 65.6725 73.5376L63.6745 73.4484ZM117.557 94.7249C127.25 88.63 136.083 86.9167 143.361 88.0241C150.638 89.1316 156.444 93.0699 160.097 98.4379C167.383 109.145 166.182 125.703 150.437 136.927L151.598 138.556C168.173 126.74 169.686 108.974 161.75 97.3127C157.792 91.4967 151.503 87.2401 143.661 86.0469C135.82 84.8536 126.509 86.7339 116.493 93.0318L117.557 94.7249Z" fill="white"/>
<path d="M127.127 141.754C127.217 141.833 127.283 141.938 127.317 142.056C127.351 142.174 127.351 142.3 127.317 142.416C127.053 143.332 127.012 144.31 127.198 145.259C127.812 148.417 130.723 150.504 133.697 149.926C134.085 149.851 134.454 149.734 134.801 149.581C134.907 149.534 135.025 149.521 135.14 149.545C135.254 149.568 135.361 149.627 135.446 149.713C135.535 149.803 135.594 149.921 135.615 150.049C135.635 150.176 135.616 150.307 135.559 150.419C135.129 151.288 134.519 152.039 133.774 152.618C133.029 153.197 132.167 153.589 131.252 153.765C127.858 154.424 124.542 152.042 123.844 148.449C123.318 145.744 124.424 143.122 126.449 141.708C126.549 141.637 126.67 141.603 126.792 141.611C126.914 141.619 127.032 141.669 127.127 141.754V141.754Z" fill="#606B99"/>
<rect x="114.886" y="139.684" width="23" height="23" rx="7.5" transform="rotate(-11 114.886 139.684)" stroke="white"/>
</svg>
