<svg width="29" height="29" viewBox="0 0 29 29" fill="none" xmlns="http://www.w3.org/2000/svg">
<path d="M13.1268 7.75367C13.2167 7.83285 13.2829 7.93829 13.3168 8.05636C13.3506 8.17443 13.3506 8.29971 13.3166 8.41601C13.053 9.33233 13.0124 10.3099 13.1984 11.2588C13.8122 14.4165 16.7225 16.5043 19.6969 15.9262C20.0849 15.8508 20.4542 15.7342 20.8011 15.5812C20.9073 15.5338 21.0252 15.5211 21.1398 15.5447C21.2544 15.5682 21.3608 15.6269 21.4457 15.7134C21.5349 15.8032 21.5944 15.921 21.615 16.0487C21.6355 16.1763 21.6159 16.3065 21.5591 16.4191C21.1288 17.2879 20.5188 18.0391 19.7738 18.6179C19.0287 19.1967 18.1673 19.5885 17.2524 19.7647C13.8584 20.4245 10.5424 18.0422 9.84393 14.4487C9.31821 11.7441 10.4237 9.12179 12.4486 7.70784C12.5493 7.63662 12.6698 7.60258 12.7921 7.61085C12.9144 7.61911 13.0319 7.66923 13.1268 7.75367V7.75367Z" fill="#606B99"/>
<rect x="0.886484" y="5.68398" width="23" height="23" rx="7.5" transform="rotate(-11 0.886484 5.68398)" stroke="#08090D"/>
</svg>
